{"title":"Honey-3 (2016 1080p Blu-ray x264 DTS-HD 5.1 MSubs -DDR","uid":15703200,"size":9650958036,"categoryP":"video","categoryS":"hd___movies","magnet":"?xt=urn:btih:a06b07124294758f6f927592b81321b65a5ac125&amp;dn=Honey-3+%282016+1080p+Blu-ray+x264+DTS-HD+5.1+MSubs+-DDR&amp;tr=udp%3A%2F%2Ftracker.leechers-paradise.org%3A6969&amp;tr=udp%3A%2F%2Fzer0day.ch%3A1337&amp;tr=udp%3A%2F%2Fopen.demonii.com%3A1337&amp;tr=udp%3A%2F%2Ftracker.coppersurfer.tk%3A6969&amp;tr=udp%3A%2F%2Fexodus.desync.com%3A6969","seeders":5,"leechers":3,"uploader":"SaM","files":3,"time":1472503539,"description":"- HollyWooD Movie-\r\n\r\nHONEY\r\n- 3 -\r\n** 2016 **\r\n1080p / Blu-ray / x264\r\nEnglish DTS-HDMA 5.1\r\nEnglish, French, Spanish &amp; Portuguese subs\r\n\r\nForced &amp; Hearing Impaired subs included\r\n \nhttp://extraimago.com/image/wS6f \nhttp://extraimago.com/image/wS6W \nhttp://extraimago.com/image/wS6A \nhttp://extraimago.com/image/wS6v \nhttp://extraimago.com/image/wS6u \nhttp://extraimago.com/image/wS6V \nhttp://extraimago.com/image/wS66 \nhttp://extraimago.com/image/wS6x \nhttp://extraimago.com/image/wS6t \nhttp://extraimago.com/image/wS6o \nhttp://extraimago.com/image/wS6k \nhttp://extraimago.com/image/wS6H \nhttp://extraimago.com/image/wS6F \nhttp://extraimago.com/image/wS6D \nhttp://extraimago.com/image/wS65 \nhttp://extraimago.com/image/wS6g \nhttp://extraimago.com/image/wS6X \nhttp://extraimago.com/image/wS6P\r\n\r\nSOURCE: Russian Bluray @ HDC\r\n\r\nFile size : 8.85 GiB\r\nDuration : 1 h 36 min\r\nOverall bit rate : 13.2 Mb/s\r\n\r\nVideo\r\nFormat : AVC\r\nFormat/Info : Advanced Video Codec\r\nFormat profile :   \r\nFormat settings, CABAC : Yes\r\nFormat settings, ReFrames : 4 frames\r\nCodec ID : V_MPEG4/ISO/AVC\r\nDuration : 1 h 36 min\r\nBit rate : 9 012 kb/s\r\nWidth : 1 920 pixels\r\nHeight : 1 080 pixels\r\nDisplay aspect ratio : 16:9\r\nFrame rate mode : Constant\r\nFrame rate : 23.976 (24000/1001) FPS\r\ncolor space : YUV\r\nChroma subsampling : 4:2:0\r\nBit depth : 8 bits\r\nScan type : Progressive\r\nBits/(Pixel*Frame) : 0.181\r\nStream size : 6.06 GiB (68%)\r\n\r\nAudio\r\nFormat : DTS\r\nFormat/Info : Digital Theater Systems\r\nFormat profile : MA / Core\r\nMode : 16\r\nFormat settings, Endianness : Big\r\nCodec ID : A_DTS\r\nDuration : 1 h 36 min\r\nBit rate mode : Variable / Constant\r\nBit rate : 4 120 kb/s / 1 509 kb/s\r\nChannel(s) : 6 channels\r\nChannel positions : Front: L C R, Side: L R, LFE\r\nSampling rate : 48.0 kHz\r\nFrame rate : 93.750 FPS (512 spf)\r\nBit depth : 24 bits\r\nCompression mode : Lossless / Lossy\r\nStream size : 2.77 GiB (31%)\r\nLanguage : English\r\nDefault : Yes\r\nForced : No\r\n\r\nChapters = Yes\r\nSample : Included","torrent":{"xt":"urn:btih:a06b07124294758f6f927592b81321b65a5ac125","amp;dn":"Honey-3+%282016+1080p+Blu-ray+x264+DTS-HD+5.1+MSubs+-DDR","amp;tr":["udp%3A%2F%2Ftracker.leechers-paradise.org%3A6969","udp%3A%2F%2Fzer0day.ch%3A1337","udp%3A%2F%2Fopen.demonii.com%3A1337","udp%3A%2F%2Ftracker.coppersurfer.tk%3A6969","udp%3A%2F%2Fexodus.desync.com%3A6969"],"infoHash":"a06b07124294758f6f927592b81321b65a5ac125","infoHashBuffer":{"type":"Buffer","data":[160,107,7,18,66,148,117,143,111,146,117,146,184,19,33,182,90,90,193,37]},"announce":[],"urlList":[]}}